<?xml version="1.0" encoding="UTF-8"?>
<svg xmlns="http://www.w3.org/2000/svg" version="1.1" viewBox="0 0 72.4 72.4">
  <rect x="0" y="0" width="72.4" height="72.4" rx="36.2" ry="36.2" />
  <g>
    <path fill="#fff"
      d="M34.4,29.6c-.7-4.5-3.1-7.8-7.2-9.6-4.4-2-11.7-1.7-15.7,1-5.3,3.2-7.4,9-7.4,15.3s2,12,7.3,15.2c2.4,1.4,5.4,2.2,8.9,2.2,6.9.1,13.5-3.7,14.5-10.8h-6.1c-1.4,5.7-10.1,6.5-14.1,3.5-5.8-4.1-5.9-16.2-.1-20.4,2.6-2.2,8.5-2.3,11.3-.3,1.4.9,2.3,2.2,2.8,3.9,0,0,5.8,0,5.8,0Z" />
    <path fill="#fff" d="M43.3,53.7v-14.3h5.3l9.5,14.3h7.2l-11.7-17.9,11.7-17.1h-7l-9.9,15h-5v-15h-6.2v35h6.2Z" />
  </g>
</svg>