<svg width="128" height="128" viewBox="0 0 128 128" fill="none" xmlns="http://www.w3.org/2000/svg">
<rect width="128" height="128" fill="#131313"/>
<g clip-path="url(#clip0_8_26)">
<path d="M111 88.705C109.69 89.2004 108.244 89.1993 106.935 88.7019C105.626 88.2045 104.544 87.2452 103.894 86.005L90.9562 68.1137L89.0812 65.6125L74.07 86.0275C73.4587 87.2157 72.4356 88.1406 71.1919 88.6292C69.9482 89.1178 68.5691 89.1368 67.3125 88.6825L86.655 62.7325L68.6625 39.2912C69.9562 38.825 71.3711 38.8188 72.6689 39.2737C73.9666 39.7286 75.068 40.6168 75.7875 41.7887L89.1975 59.9012L102.682 41.8637C103.299 40.6967 104.322 39.7967 105.558 39.3349C106.794 38.873 108.157 38.8815 109.387 39.3587L102.405 48.625L92.9475 60.9362C92.6849 61.1705 92.4747 61.4577 92.3308 61.7789C92.1869 62.1001 92.1125 62.448 92.1125 62.8C92.1125 63.1519 92.1869 63.4999 92.3308 63.8211C92.4747 64.1423 92.6849 64.4295 92.9475 64.6637L110.962 88.7087L111 88.705ZM21.0075 62.41L22.5825 54.6287C26.91 39.2425 44.55 32.8412 56.685 42.3662C63.7912 47.95 65.565 55.855 65.2163 64.765H25.185C24.5362 80.6762 36.0187 90.2837 50.7 85.375C53.08 84.5183 55.2103 83.0846 56.9001 81.2024C58.5899 79.3202 59.7864 77.0482 60.3825 74.59C61.1588 72.0925 62.4375 71.665 64.785 72.385C64.3938 75.4314 63.3169 78.3495 61.6353 80.9197C59.9536 83.4899 57.7111 85.6453 55.0763 87.2237C50.7241 89.6043 45.7306 90.5479 40.8098 89.9195C35.8891 89.2911 31.293 87.1229 27.6787 83.725C24.1051 79.7027 21.9453 74.6218 21.5287 69.2575C21.5287 68.3762 21.2287 67.5512 21.0262 66.76C21.008 65.3113 20.9992 63.8625 21 62.4137L21.0075 62.41ZM25.2337 61.3375H61.4363C61.2113 49.8025 53.9325 41.62 44.2237 41.545C33.4162 41.395 25.6837 49.3975 25.2075 61.285L25.2337 61.3375Z" fill="white"/>
</g>
<defs>
<clipPath id="clip0_8_26">
<rect width="90" height="90" fill="white" transform="translate(21 19)"/>
</clipPath>
</defs>
</svg>
