<svg width="128" height="128" viewBox="0 0 128 128" fill="none" xmlns="http://www.w3.org/2000/svg">
<rect width="128" height="128" fill="#1C0F0C"/>
<g clip-path="url(#clip0_8_51)">
<path d="M110.26 59.8985L70.0902 19.7329C67.7748 17.4214 64.0258 17.4214 61.7028 19.7329L53.3807 28.0704L63.9607 38.6504C66.4332 37.8262 69.2468 38.382 71.2018 40.3409C73.1798 42.315 73.7242 45.1632 72.8808 47.6242L83.0698 57.8209C85.5423 56.966 88.3867 57.5219 90.3532 59.4884C93.117 62.2484 93.117 66.7104 90.3532 69.4704C87.597 72.2265 83.1427 72.2265 80.3865 69.4704C78.3203 67.3965 77.8028 64.3452 78.8378 61.819L69.2967 52.3277V77.3402C69.9713 77.6699 70.6077 78.1184 71.1673 78.6742C73.9005 81.438 73.9005 85.8924 71.1673 88.6409C68.4112 91.4047 63.9262 91.4047 61.1662 88.6409C58.41 85.8847 58.41 81.438 61.1662 78.6819C61.8638 77.9919 62.6497 77.4705 63.4853 77.1255V51.8677C62.6535 51.5189 61.86 51.0167 61.1853 50.3305C59.0962 48.2414 58.594 45.1862 59.6673 42.6294L49.2713 32.1835L21.725 59.7107C19.425 62.0299 19.425 65.7827 21.725 68.1019L61.8983 108.264C64.2137 110.579 67.9627 110.579 70.278 108.264L110.26 68.282C112.579 65.9705 112.579 62.2177 110.26 59.8985Z" fill="#F59580"/>
</g>
<defs>
<clipPath id="clip0_8_51">
<rect width="92" height="92" fill="white" transform="translate(20 18)"/>
</clipPath>
</defs>
</svg>
