<svg width="128" height="128" viewBox="0 0 128 128" fill="none" xmlns="http://www.w3.org/2000/svg">
<rect width="128" height="128" fill="#131313"/>
<path d="M66 20.1137C41.1375 20.1137 21 40.2625 21 65.1137C21 85 33.8925 101.864 51.7687 107.807C54.0187 108.231 54.8437 106.84 54.8437 105.644C54.8437 104.575 54.8063 101.744 54.7875 97.9937C42.27 100.709 39.63 91.9562 39.63 91.9562C37.5825 86.7625 34.6237 85.375 34.6237 85.375C30.5475 82.585 34.9388 82.6412 34.9388 82.6412C39.4575 82.9562 41.8312 87.2762 41.8312 87.2762C45.8437 94.1575 52.365 92.17 54.9375 91.0187C55.3425 88.1087 56.5013 86.125 57.7875 85C47.7938 83.875 37.29 80.005 37.29 62.7625C37.29 57.85 39.0338 53.8375 41.9212 50.6875C41.415 49.5512 39.8963 44.9762 42.315 38.7775C42.315 38.7775 46.0838 37.57 54.69 43.39C58.29 42.3887 62.115 41.8937 65.94 41.8712C69.765 41.8937 73.59 42.3887 77.19 43.39C85.74 37.57 89.5087 38.7775 89.5087 38.7775C91.9275 44.9762 90.4087 49.5512 89.9587 50.6875C92.8275 53.8375 94.5712 57.85 94.5712 62.7625C94.5712 80.05 84.0525 83.8562 74.04 84.9625C75.615 86.3125 77.0775 89.0725 77.0775 93.2875C77.0775 99.31 77.0213 104.147 77.0213 105.61C77.0213 106.791 77.8087 108.197 80.115 107.747C98.1188 101.845 111 84.97 111 65.1137C111 40.2625 90.8512 20.1137 66 20.1137Z" fill="white"/>
</svg>
