<svg width="128" height="128" viewBox="0 0 128 128" fill="none" xmlns="http://www.w3.org/2000/svg">
<rect width="128" height="128" fill="#0E150C"/>
<g clip-path="url(#clip0_8_37)">
<path d="M65.9925 109C64.7888 109 63.5888 108.685 62.535 108.074L51.525 101.56C49.8825 100.641 50.685 100.315 51.225 100.124C53.4188 99.3625 53.8612 99.1863 56.205 97.8588C56.4487 97.72 56.7713 97.7725 57.0225 97.9225L65.4825 102.944C65.79 103.113 66.2213 103.113 66.5025 102.944L99.4838 83.9088C99.7913 83.7325 99.9863 83.38 99.9863 83.0163V44.9538C99.9863 44.5825 99.7875 44.2338 99.4725 44.0463L66.5063 25.0263C66.2025 24.85 65.7975 24.85 65.49 25.0263L32.5312 44.05C32.2125 44.2338 32.01 44.5938 32.01 44.9538V83.0163C32.01 83.38 32.2125 83.725 32.5312 83.8975L41.565 89.1175C46.4663 91.57 49.47 88.6825 49.47 85.78V48.2013C49.47 47.6688 49.8975 47.2525 50.43 47.2525H54.6113C55.1325 47.2525 55.5675 47.6725 55.5675 48.2013V85.78C55.5675 92.3238 52.005 96.0738 45.8025 96.0738C43.8975 96.0738 42.3937 96.0738 38.205 94.0075L29.55 89.0313C27.4125 87.7975 26.0925 85.4875 26.0925 83.0163V44.9538C26.0925 42.4825 27.4162 40.1725 29.55 38.9425L62.5313 19.885C64.62 18.7038 67.3913 18.7038 69.4613 19.885L102.439 38.9425C104.576 40.1763 105.904 42.4825 105.904 44.9538V83.0163C105.904 85.4875 104.576 87.79 102.439 89.0313L69.4613 108.074C68.4113 108.685 67.215 109 65.9925 109ZM92.6213 71.4738C92.6213 64.3488 87.8063 62.4513 77.67 61.1125C67.4288 59.7588 66.3863 59.0575 66.3863 56.6613C66.3863 54.6813 67.2675 52.0375 74.8538 52.0375C81.63 52.0375 84.1275 53.4963 85.155 58.0638C85.245 58.495 85.6388 58.81 86.0813 58.81H90.36C90.6263 58.81 90.8775 58.6938 91.0575 58.5063C91.2375 58.3038 91.335 58.045 91.3088 57.7713C90.645 49.9038 85.4175 46.2363 74.8538 46.2363C65.4488 46.2363 59.8388 50.2038 59.8388 56.86C59.8388 64.0788 65.4188 66.0738 74.445 66.9663C85.245 68.0238 86.0813 69.6025 86.0813 71.725C86.0813 75.4113 83.1225 76.9825 76.1738 76.9825C67.4475 76.9825 65.5275 74.7925 64.8825 70.45C64.8075 69.985 64.41 69.6438 63.9338 69.6438H59.67C59.1413 69.6438 58.7175 70.0638 58.7175 70.5925C58.7175 76.15 61.74 82.7725 76.1738 82.7725C86.6288 82.7763 92.6213 78.6625 92.6213 71.4738Z" fill="#89C57A"/>
</g>
<defs>
<clipPath id="clip0_8_37">
<rect width="90" height="90" fill="white" transform="translate(21 19)"/>
</clipPath>
</defs>
</svg>
