<svg width="128" height="128" viewBox="0 0 128 128" fill="none" xmlns="http://www.w3.org/2000/svg">
<rect width="128" height="128" fill="#061519"/>
<path d="M74.3271 63.5099C74.3271 65.8675 73.3951 68.1285 71.7361 69.7959C70.0771 71.4633 67.8269 72.4006 65.4802 72.4016C63.1328 72.4016 60.8816 71.4648 59.2217 69.7973C57.5619 68.1298 56.6294 65.8682 56.6294 63.5099C56.6294 61.1524 57.5613 58.8914 59.2203 57.224C60.8793 55.5566 63.1295 54.6193 65.4763 54.6182C67.8236 54.6182 70.0749 55.555 71.7347 57.2226C73.3946 58.8901 74.3271 61.1517 74.3271 63.5099ZM84.8087 21C79.4808 21 72.5102 24.8175 65.4604 31.4267C58.4146 24.8533 51.44 21.0795 46.116 21.0795C44.4931 21.0795 43.0167 21.4494 41.7381 22.185C36.2954 25.3385 35.0763 35.1647 37.8867 47.4961C25.8375 51.2342 18 57.211 18 63.5099C18 69.8327 25.8771 75.8255 37.9619 79.5357C35.1752 91.9149 36.4181 101.757 41.8727 104.906C43.1394 105.65 44.604 106 46.2348 106C51.5587 106 58.5333 102.182 65.5831 95.5654C72.629 102.143 79.6035 105.916 84.9275 105.916C86.5504 105.916 88.0269 105.559 89.3054 104.823C94.7442 101.673 95.9673 91.8473 93.1569 79.5118C105.162 75.8056 113 69.8168 113 63.5099C113 57.1871 105.123 51.1944 93.0381 47.4763C95.8248 35.109 94.5819 25.2589 89.1273 22.1055C87.8685 21.3738 86.4079 21.004 84.8087 21ZM84.789 25.3345V25.3584C85.6796 25.3584 86.396 25.5333 86.9977 25.8634C89.634 27.3825 90.7779 33.1605 89.8873 40.5927C89.6735 42.422 89.3252 44.3506 88.8977 46.3191C85.0977 45.3806 80.9573 44.6608 76.5992 44.1956C73.9867 40.5967 71.2752 37.328 68.544 34.4648C74.8456 28.5794 80.7633 25.3504 84.7929 25.3385L84.789 25.3345ZM46.116 25.414C50.1219 25.414 56.0673 28.6271 62.3848 34.4807C59.6694 37.3439 56.9619 40.5927 54.389 44.1916C50.0071 44.6568 45.8627 45.3766 42.0667 46.331C41.6233 44.3825 41.2948 42.4975 41.0613 40.6842C40.1508 33.2559 41.275 27.4819 43.8875 25.9429C44.6396 25.585 45.4708 25.4339 46.116 25.414ZM65.4406 37.5427C67.2417 39.4037 69.0427 41.4875 70.824 43.7621C69.0823 43.6826 67.301 43.6269 65.5 43.6269C63.6792 43.6269 61.8781 43.6667 60.1167 43.7621C61.8583 41.4875 63.6594 39.4077 65.4406 37.5427ZM65.5 47.9853C68.4292 47.9853 71.3465 48.1205 74.2162 48.3551C75.8233 50.6695 77.3908 53.1389 78.899 55.7516C80.3715 58.2966 81.7094 60.8814 82.9285 63.4901C81.7094 66.0947 80.3715 68.6994 78.9188 71.2444C77.4146 73.869 75.859 76.3663 74.2479 78.6807C71.3662 78.9312 68.445 79.0704 65.5 79.0704C62.5708 79.0704 59.6535 78.9312 56.7838 78.7006C55.1767 76.3862 53.6092 73.9127 52.101 71.3041C50.6285 68.7591 49.2906 66.1743 48.0715 63.5656C49.2708 60.953 50.6285 58.3443 52.0812 55.7953C53.5854 53.1708 55.141 50.6814 56.7521 48.367C59.6337 48.1125 62.555 47.9773 65.5 47.9773V47.9853ZM51.1115 48.9953C50.1615 50.4945 49.2115 52.0295 48.3248 53.6082C47.4342 55.1591 46.6029 56.7179 45.8112 58.2767C44.7623 55.6681 43.8717 53.0674 43.1354 50.5343C45.6687 49.9378 48.3406 49.4049 51.1115 48.9953ZM79.849 48.9953C82.6 49.4049 85.2521 49.9099 87.7894 50.5343C87.0769 53.0475 86.1863 55.6323 85.1769 58.2211C84.3852 56.6702 83.554 55.1074 82.6435 53.5525C81.7529 51.9937 80.8029 50.4746 79.8529 48.9953H79.849ZM91.9733 51.6795C93.8892 52.276 95.71 52.9401 97.416 53.6599C104.272 56.6026 108.705 60.4519 108.705 63.506C108.685 66.56 104.252 70.4253 97.3963 73.3481C95.7338 74.0639 93.9129 74.7081 92.0327 75.3085C90.9244 71.4989 89.4756 67.5303 87.6785 63.4582C89.4598 59.414 90.8848 55.4653 91.9733 51.6716V51.6795ZM38.9515 51.6954C40.0519 55.513 41.5046 59.4777 43.3056 63.5457C41.5244 67.5899 40.0915 71.5387 39.0069 75.3324C37.091 74.7359 35.2702 74.0678 33.584 73.3441C26.7281 70.4133 22.2948 66.56 22.2948 63.506C22.2948 60.4519 26.7281 56.5787 33.584 53.6599C35.2465 52.9441 37.0673 52.2999 38.9515 51.6954ZM85.1769 68.7153C86.2258 71.328 87.1165 73.9326 87.8527 76.4618C85.3194 77.0861 82.6435 77.615 79.8727 78.0126C80.8227 76.5214 81.7727 74.9825 82.6633 73.4077C83.554 71.8568 84.3813 70.2742 85.1769 68.7153ZM45.8112 68.7949C46.6029 70.3537 47.4342 71.9085 48.3446 73.4674C49.255 75.0182 50.1852 76.5373 51.1352 78.0126C48.3842 77.607 45.7321 77.098 43.1948 76.4777C43.9073 73.9724 44.8019 71.3796 45.8073 68.7909L45.8112 68.7949ZM88.9333 80.673C89.3767 82.6334 89.725 84.5223 89.9387 86.3317C90.8492 93.76 89.725 99.534 87.1125 101.077C86.5306 101.435 85.7746 101.586 84.884 101.586C80.8781 101.586 74.9327 98.3768 68.6152 92.5193C71.3306 89.6561 74.0381 86.4112 76.611 82.8164C80.9929 82.3471 85.1373 81.6274 88.9333 80.673ZM42.1063 80.7127C45.9062 81.6433 50.0467 82.363 54.4048 82.8283C57.0173 86.4271 59.7288 89.6959 62.46 92.5551C56.1465 98.4524 50.2208 101.681 46.1913 101.681C45.3204 101.662 44.5842 101.483 44.0023 101.156C41.366 99.6454 40.2221 93.8634 41.1127 86.4311C41.3265 84.6019 41.6788 82.6772 42.1063 80.7127ZM60.1562 83.2578C61.8979 83.3373 63.6792 83.393 65.4802 83.393C67.301 83.393 69.1021 83.3532 70.8635 83.2578C69.1219 85.5324 67.3208 87.6122 65.5396 89.4812C63.7385 87.6122 61.9375 85.5324 60.1562 83.2578Z" fill="#3BC6E2"/>
</svg>
