<svg width="128" height="128" viewBox="0 0 128 128" fill="none" xmlns="http://www.w3.org/2000/svg">
<rect width="128" height="128" fill="#08151B"/>
<g clip-path="url(#clip0_8_6)">
<path d="M66.004 35.2C53.204 35.2 45.204 41.6 42.004 54.4C46.804 48 52.404 45.6 58.804 47.2C62.456 48.112 65.064 50.76 67.956 53.696C72.664 58.472 78.108 64 90.004 64C102.804 64 110.804 57.6 114.004 44.8C109.204 51.2 103.604 53.6 97.204 52C93.552 51.088 90.944 48.44 88.052 45.504C83.348 40.728 77.904 35.2 66.004 35.2ZM42.004 64C29.204 64 21.204 70.4 18.004 83.2C22.804 76.8 28.404 74.4 34.804 76C38.456 76.912 41.064 79.56 43.956 82.496C48.664 87.272 54.108 92.8 66.004 92.8C78.804 92.8 86.804 86.4 90.004 73.6C85.204 80 79.604 82.4 73.204 80.8C69.552 79.888 66.944 77.24 64.052 74.304C59.348 69.528 53.904 64 42.004 64Z" fill="#58BFF3"/>
</g>
<defs>
<clipPath id="clip0_8_6">
<rect width="96" height="96" fill="white" transform="translate(18 16)"/>
</clipPath>
</defs>
</svg>
