<svg width="128" height="128" viewBox="0 0 128 128" fill="none" xmlns="http://www.w3.org/2000/svg">
<rect width="128" height="128" fill="#0C131D"/>
<path d="M92.2466 58.0004C94.6863 58.0004 96.8472 58.1491 98.7328 58.4466C100.511 58.7153 102.256 59.1737 103.939 59.8137V69.6964C103.131 69.1331 102.273 68.6468 101.376 68.2446C100.45 67.8246 99.4947 67.4752 98.5174 67.1992C96.6662 66.6789 94.7545 66.4087 92.8327 66.3953C91.6368 66.3953 90.5484 66.5081 89.5677 66.7413C88.6938 66.9298 87.8554 67.258 87.0845 67.7138C86.4068 68.132 85.8881 68.6349 85.5173 69.2179C85.1445 69.8054 84.9508 70.4905 84.9596 71.188C84.9597 71.9759 85.171 72.6877 85.5815 73.3148C85.9961 73.942 86.5859 74.5373 87.3473 75.1001C88.1086 75.663 89.0335 76.2097 90.1217 76.7485C91.21 77.2912 92.4418 77.8502 93.813 78.4211C95.6865 79.2131 97.369 80.0571 98.8598 80.9455C100.351 81.8381 101.631 82.8478 102.699 83.9735C103.767 85.0952 104.581 86.3777 105.147 87.8209C105.713 89.2642 106 90.941 106 92.8587C106 95.5001 105.502 97.7237 104.513 99.5169C103.547 101.285 102.161 102.785 100.479 103.88C98.6657 105.039 96.6561 105.852 94.551 106.276C92.2947 106.758 89.9146 107 87.4151 107C84.9551 107.011 82.4994 106.79 80.08 106.34C77.987 105.975 75.9571 105.307 74.053 104.358V93.7834C77.6558 96.8757 82.2259 98.5849 86.9567 98.6084C88.2841 98.6084 89.4441 98.4881 90.4327 98.247C91.4253 98.0057 92.2509 97.6675 92.9167 97.2413C93.5783 96.8071 94.0727 96.3006 94.4035 95.7137C94.7692 95.0303 94.9353 94.2563 94.8831 93.4815C94.8309 92.7068 94.5625 91.9627 94.1086 91.3355C93.5164 90.5451 92.7917 89.8645 91.9677 89.325C90.9459 88.6418 89.87 88.0445 88.7509 87.5397C87.4244 86.9287 86.0857 86.3443 84.7363 85.7868C81.0769 84.2469 78.3501 82.3613 76.5523 80.1379C74.7584 77.9146 73.8574 75.2246 73.8573 72.0766C73.8573 69.608 74.3476 67.4889 75.3282 65.7158C76.3087 63.9428 77.6403 62.4835 79.3304 61.3376C81.1181 60.1481 83.1035 59.291 85.191 58.8081C87.5029 58.2583 89.8713 57.9875 92.2466 58.0004Z" fill="#7AB6FE"/>
<path d="M70.1223 67.465H56.4404V106.248H45.6096V67.465H32V58.7558H70.1223V67.465Z" fill="#7AB6FE"/>
</svg>
